<svg id="visual" viewBox="0 0 960 540" width="960" height="540" xmlns="http://www.w3.org/2000/svg" xmlns:xlink="http://www.w3.org/1999/xlink" version="1.1"><g stroke-width="1" stroke-linejoin="bevel"><path d="M440.7 290L373.7 266L402 320Z" fill="#05031f" stroke="#05031f"></path><path d="M440.7 290L454.3 171L373.7 266Z" fill="#05031f" stroke="#05031f"></path><path d="M289 352L355 405L402 320Z" fill="#000000" stroke="#000000"></path><path d="M402 320L528.3 353L440.7 290Z" fill="#2a2b43" stroke="#2a2b43"></path><path d="M299.3 199L289 352L373.7 266Z" fill="#1e1f36" stroke="#1e1f36"></path><path d="M373.7 266L289 352L402 320Z" fill="#0f1026" stroke="#0f1026"></path><path d="M307.3 157L299.3 199L373.7 266Z" fill="#12142a" stroke="#12142a"></path><path d="M355 405L528.3 353L402 320Z" fill="#0b0a22" stroke="#0b0a22"></path><path d="M440.7 290L558.3 298L454.3 171Z" fill="#05031f" stroke="#05031f"></path><path d="M528.3 353L558.3 298L440.7 290Z" fill="#22233a" stroke="#22233a"></path><path d="M289 352L340.7 430L355 405Z" fill="#05031f" stroke="#05031f"></path><path d="M355 405L443.3 540L528.3 353Z" fill="#000000" stroke="#000000"></path><path d="M454.3 171L307.3 157L373.7 266Z" fill="#22233a" stroke="#22233a"></path><path d="M479.7 93L393.7 91L454.3 171Z" fill="#000000" stroke="#000000"></path><path d="M454.3 171L393.7 91L307.3 157Z" fill="#16182e" stroke="#16182e"></path><path d="M289 352L281.3 440L340.7 430Z" fill="#12142a" stroke="#12142a"></path><path d="M162.7 379L281.3 440L289 352Z" fill="#0f1026" stroke="#0f1026"></path><path d="M160.7 122L133.3 236L299.3 199Z" fill="#2a2b43" stroke="#2a2b43"></path><path d="M133.3 236L162.7 379L289 352Z" fill="#12142a" stroke="#12142a"></path><path d="M393.7 91L303 111L307.3 157Z" fill="#1e1f36" stroke="#1e1f36"></path><path d="M603.3 230L479.7 93L454.3 171Z" fill="#16182e" stroke="#16182e"></path><path d="M609.3 339L603.3 230L558.3 298Z" fill="#16182e" stroke="#16182e"></path><path d="M558.3 298L603.3 230L454.3 171Z" fill="#16182e" stroke="#16182e"></path><path d="M528.3 353L609.3 339L558.3 298Z" fill="#22233a" stroke="#22233a"></path><path d="M596 520L609.3 339L528.3 353Z" fill="#000000" stroke="#000000"></path><path d="M329.7 540L368 540L340.7 430Z" fill="#1a1c32" stroke="#1a1c32"></path><path d="M340.7 430L443.3 540L355 405Z" fill="#22233a" stroke="#22233a"></path><path d="M368 540L443.3 540L340.7 430Z" fill="#1a1c32" stroke="#1a1c32"></path><path d="M133.3 236L289 352L299.3 199Z" fill="#2a2b43" stroke="#2a2b43"></path><path d="M281.3 440L329.7 540L340.7 430Z" fill="#05031f" stroke="#05031f"></path><path d="M204.3 540L329.7 540L281.3 440Z" fill="#12142a" stroke="#12142a"></path><path d="M160.7 122L299.3 199L307.3 157Z" fill="#0f1026" stroke="#0f1026"></path><path d="M683.7 159L658 157L603.3 230Z" fill="#26273f" stroke="#26273f"></path><path d="M603.3 230L658 157L479.7 93Z" fill="#0f1026" stroke="#0f1026"></path><path d="M393.7 91L313 12L303 111Z" fill="#0f1026" stroke="#0f1026"></path><path d="M303 111L160.7 122L307.3 157Z" fill="#22233a" stroke="#22233a"></path><path d="M359.7 0L313 12L393.7 91Z" fill="#0b0a22" stroke="#0b0a22"></path><path d="M359.7 0L393.7 91L452.3 0Z" fill="#22233a" stroke="#22233a"></path><path d="M452.3 0L393.7 91L479.7 93Z" fill="#16182e" stroke="#16182e"></path><path d="M661 0L452.3 0L479.7 93Z" fill="#12142a" stroke="#12142a"></path><path d="M359.7 0L336 0L313 12Z" fill="#12142a" stroke="#12142a"></path><path d="M299.3 0L160.7 122L303 111Z" fill="#26273f" stroke="#26273f"></path><path d="M54.7 261L132.3 405L162.7 379Z" fill="#22233a" stroke="#22233a"></path><path d="M162.7 379L142.7 440L281.3 440Z" fill="#05031f" stroke="#05031f"></path><path d="M336 0L299.3 0L313 12Z" fill="#05031f" stroke="#05031f"></path><path d="M313 12L299.3 0L303 111Z" fill="#0b0a22" stroke="#0b0a22"></path><path d="M443.3 540L596 520L528.3 353Z" fill="#000000" stroke="#000000"></path><path d="M727.7 197L683.7 159L603.3 230Z" fill="#000000" stroke="#000000"></path><path d="M132.3 405L142.7 440L162.7 379Z" fill="#05031f" stroke="#05031f"></path><path d="M717 276L603.3 230L609.3 339Z" fill="#16182e" stroke="#16182e"></path><path d="M658 157L683 57L479.7 93Z" fill="#0f1026" stroke="#0f1026"></path><path d="M676 450L717 276L609.3 339Z" fill="#0f1026" stroke="#0f1026"></path><path d="M596 520L676 450L609.3 339Z" fill="#26273f" stroke="#26273f"></path><path d="M443.3 540L605 540L596 520Z" fill="#22233a" stroke="#22233a"></path><path d="M596 520L605 540L676 450Z" fill="#12142a" stroke="#12142a"></path><path d="M142.7 440L204.3 540L281.3 440Z" fill="#12142a" stroke="#12142a"></path><path d="M717 276L727.7 197L603.3 230Z" fill="#05031f" stroke="#05031f"></path><path d="M0 158L54.7 261L133.3 236Z" fill="#16182e" stroke="#16182e"></path><path d="M133.3 236L54.7 261L162.7 379Z" fill="#2a2b43" stroke="#2a2b43"></path><path d="M0 405L70.7 540L142.7 440Z" fill="#05031f" stroke="#05031f"></path><path d="M727.7 197L740.7 173L683.7 159Z" fill="#12142a" stroke="#12142a"></path><path d="M683.7 159L683 57L658 157Z" fill="#1a1c32" stroke="#1a1c32"></path><path d="M778.3 183L740.7 173L727.7 197Z" fill="#2a2b43" stroke="#2a2b43"></path><path d="M740.7 173L683 57L683.7 159Z" fill="#26273f" stroke="#26273f"></path><path d="M815.7 0L661 0L683 57Z" fill="#2a2b43" stroke="#2a2b43"></path><path d="M683 57L661 0L479.7 93Z" fill="#0f1026" stroke="#0f1026"></path><path d="M299.3 0L148.7 0L160.7 122Z" fill="#2a2b43" stroke="#2a2b43"></path><path d="M160.7 122L0 158L133.3 236Z" fill="#22233a" stroke="#22233a"></path><path d="M605 540L719.7 506L676 450Z" fill="#1e1f36" stroke="#1e1f36"></path><path d="M676 450L844.7 440L717 276Z" fill="#26273f" stroke="#26273f"></path><path d="M717 276L778.3 183L727.7 197Z" fill="#05031f" stroke="#05031f"></path><path d="M851.3 214L778.3 183L717 276Z" fill="#1a1c32" stroke="#1a1c32"></path><path d="M740.7 173L815.7 0L683 57Z" fill="#000000" stroke="#000000"></path><path d="M148.7 0L62.7 81L160.7 122Z" fill="#16182e" stroke="#16182e"></path><path d="M0 158L0 254L54.7 261Z" fill="#05031f" stroke="#05031f"></path><path d="M54.7 261L0 400L132.3 405Z" fill="#0b0a22" stroke="#0b0a22"></path><path d="M142.7 440L70.7 540L204.3 540Z" fill="#0b0a22" stroke="#0b0a22"></path><path d="M0 405L142.7 440L132.3 405Z" fill="#26273f" stroke="#26273f"></path><path d="M0 254L0 400L54.7 261Z" fill="#000000" stroke="#000000"></path><path d="M0 400L0 405L132.3 405Z" fill="#2a2b43" stroke="#2a2b43"></path><path d="M62.7 81L0 158L160.7 122Z" fill="#1e1f36" stroke="#1e1f36"></path><path d="M0 0L0 109L62.7 81Z" fill="#0b0a22" stroke="#0b0a22"></path><path d="M62.7 81L0 109L0 158Z" fill="#1e1f36" stroke="#1e1f36"></path><path d="M605 540L774.7 540L719.7 506Z" fill="#1a1c32" stroke="#1a1c32"></path><path d="M719.7 506L844.7 440L676 450Z" fill="#26273f" stroke="#26273f"></path><path d="M844.7 440L851.3 214L717 276Z" fill="#2a2b43" stroke="#2a2b43"></path><path d="M778.3 183L815.7 0L740.7 173Z" fill="#1a1c32" stroke="#1a1c32"></path><path d="M774.7 540L844.7 440L719.7 506Z" fill="#12142a" stroke="#12142a"></path><path d="M0 405L0 540L70.7 540Z" fill="#16182e" stroke="#16182e"></path><path d="M148.7 0L0 0L62.7 81Z" fill="#000000" stroke="#000000"></path><path d="M825.3 0L815.7 0L778.3 183Z" fill="#22233a" stroke="#22233a"></path><path d="M851.3 214L825.3 0L778.3 183Z" fill="#05031f" stroke="#05031f"></path><path d="M906.3 540L900.3 438L844.7 440Z" fill="#1a1c32" stroke="#1a1c32"></path><path d="M844.7 440L960 310L851.3 214Z" fill="#22233a" stroke="#22233a"></path><path d="M851.3 214L944.3 187L825.3 0Z" fill="#05031f" stroke="#05031f"></path><path d="M960 248L944.3 187L851.3 214Z" fill="#05031f" stroke="#05031f"></path><path d="M960 357L960 310L844.7 440Z" fill="#05031f" stroke="#05031f"></path><path d="M960 310L960 248L851.3 214Z" fill="#16182e" stroke="#16182e"></path><path d="M900.3 438L960 357L844.7 440Z" fill="#0b0a22" stroke="#0b0a22"></path><path d="M900.3 438L960 360L960 357Z" fill="#1a1c32" stroke="#1a1c32"></path><path d="M774.7 540L906.3 540L844.7 440Z" fill="#22233a" stroke="#22233a"></path><path d="M900.3 438L942.3 484L960 360Z" fill="#0f1026" stroke="#0f1026"></path><path d="M960 248L960 183L944.3 187Z" fill="#0b0a22" stroke="#0b0a22"></path><path d="M944.3 187L960 0L825.3 0Z" fill="#1a1c32" stroke="#1a1c32"></path><path d="M906.3 540L942.3 484L900.3 438Z" fill="#000000" stroke="#000000"></path><path d="M906.3 540L960 540L942.3 484Z" fill="#0b0a22" stroke="#0b0a22"></path><path d="M942.3 484L960 540L960 360Z" fill="#000000" stroke="#000000"></path><path d="M960 183L960 0L944.3 187Z" fill="#22233a" stroke="#22233a"></path></g></svg>